<svg width="305" height="339" viewBox="0 0 305 339" fill="none" xmlns="http://www.w3.org/2000/svg">
<path d="M122.937 5.04074C122.745 2.52876 124.626 0.330389 127.142 0.206158C155.043 -1.17136 182.878 4.36808 208.159 16.363C234.815 29.0103 257.707 48.3963 274.573 72.6041C291.44 96.8118 301.695 125.003 304.325 154.389C306.955 183.776 301.87 213.34 289.57 240.158C277.271 266.976 258.185 290.12 234.199 307.3C210.213 324.48 182.158 335.101 152.809 338.114C123.459 341.127 93.8311 336.426 66.855 324.478C41.2704 313.145 18.9115 295.666 1.7514 273.623C0.203819 271.635 0.642517 268.775 2.67137 267.282C4.70022 265.788 7.55063 266.227 9.10125 268.212C25.3178 288.977 46.4172 305.447 70.5497 316.136C96.0739 327.442 124.107 331.889 151.877 329.038C179.647 326.188 206.192 316.138 228.887 299.883C251.582 283.627 269.641 261.73 281.278 236.355C292.915 210.98 297.727 183.007 295.238 155.203C292.75 127.398 283.046 100.724 267.088 77.8194C251.13 54.9146 229.469 36.572 204.248 24.6055C180.402 13.2913 154.154 8.0474 127.837 9.30634C125.321 9.42672 123.129 7.55272 122.937 5.04074Z" fill="url(#paint0_linear_448_40)"/>
<defs>
<linearGradient id="paint0_linear_448_40" x1="135.5" y1="0" x2="135.5" y2="339" gradientUnits="userSpaceOnUse">
<stop stop-color="#6699FF"/>
<stop offset="1" stop-color="#181B3F"/>
</linearGradient>
</defs>
</svg>
