<svg width="198" height="220" viewBox="0 0 198 220" fill="none" xmlns="http://www.w3.org/2000/svg">
<path d="M79.847 3.27128C79.7225 1.64108 80.9432 0.214412 82.5762 0.13379C100.683 -0.760175 118.747 2.83474 135.153 10.619C152.452 18.8267 167.309 31.4076 178.254 47.1177C189.2 62.8277 195.855 81.1227 197.562 100.194C199.269 119.264 195.968 138.451 187.987 155.855C180.005 173.259 167.619 188.278 152.053 199.427C136.486 210.577 118.28 217.47 99.2327 219.425C80.1857 221.38 60.9582 218.33 43.4516 210.576C26.8481 203.221 12.3379 191.877 1.2015 177.572C0.197168 176.282 0.481869 174.426 1.79853 173.457C3.11519 172.488 4.96501 172.772 5.97132 174.061C16.4953 187.537 30.1882 198.225 45.8494 205.162C62.4137 212.499 80.6063 215.385 98.6281 213.535C116.65 211.685 133.877 205.163 148.605 194.614C163.333 184.065 175.053 169.854 182.605 153.387C190.157 136.919 193.28 118.766 191.665 100.721C190.05 82.677 183.753 65.3667 173.396 50.5023C163.04 35.6378 148.983 23.7341 132.615 15.9681C117.14 8.62563 100.106 5.2225 83.0272 6.03952C81.3942 6.11764 79.9716 4.90147 79.847 3.27128Z" fill="url(#paint0_linear_344_1479)"/>
<defs>
<linearGradient id="paint0_linear_344_1479" x1="88" y1="0" x2="88" y2="220" gradientUnits="userSpaceOnUse">
<stop stop-color="#6699FF"/>
<stop offset="1" stop-color="#181B3F"/>
</linearGradient>
</defs>
</svg>
